<svg width="1920" height="960" viewBox="0 0 1920 960" fill="none" xmlns="http://www.w3.org/2000/svg">
<rect width="1920" height="960" fill="#FCFCFC"/>
<circle cx="960" cy="480.999" r="64.6429" stroke="#1A1B1C"/>
<circle cx="960" cy="481" r="57" fill="#1A1B1C"/>
<path d="M996.51 444.578C987.174 435.219 974.263 429.428 959.999 429.428C956.698 429.428 953.47 429.738 950.341 430.331C955.678 439.159 975.176 470.108 978.932 475.613C979.662 476.683 980.958 474.558 988.81 459.421L996.51 444.578Z" fill="#FCFCFC"/>
<path d="M912.039 462.004C918.178 446.516 931.603 434.709 948.086 430.811C950.038 433.738 953.765 439.521 957.838 445.961L968.188 462.325H938.636C924.375 462.325 916.041 462.232 912.039 462.004Z" fill="#FCFCFC"/>
<path d="M919.618 513.08C912.613 504.274 908.428 493.126 908.428 481C908.428 475.189 909.389 469.603 911.16 464.392H927.773C947.204 464.392 947.646 464.422 946.952 465.721C945.576 468.297 925.155 503.646 919.618 513.08Z" fill="#FCFCFC"/>
<path d="M970.018 531.599C966.777 532.237 963.427 532.571 959.999 532.571C944.566 532.571 930.716 525.792 921.265 515.049C923.307 510.512 928.626 501.041 937.838 485.483C938.704 484.019 939.582 482.99 939.788 483.197C939.995 483.403 947.262 494.992 955.939 508.95L970.018 531.599Z" fill="#FCFCFC"/>
<path d="M1008.65 498.154C1002.89 514.499 989.117 527.069 972.052 531.155C967.351 523.906 951.742 498.834 951.742 498.446C951.742 498.285 965.231 498.154 981.718 498.154H1008.65Z" fill="#FCFCFC"/>
<path d="M997.889 446.014C1006.38 455.207 1011.57 467.497 1011.57 481C1011.57 486.502 1010.71 491.803 1009.11 496.776H991.96C980.814 496.776 971.695 496.607 971.695 496.401C971.695 495.976 994.016 453.076 997.889 446.014Z" fill="#FCFCFC"/>
<path opacity="0.3" d="M881.832 189.275L1251.72 402.833L1038.17 772.725L668.275 559.167L881.832 189.275Z" stroke="#A0A4AB" stroke-width="2" stroke-linecap="round" stroke-linejoin="round" stroke-dasharray="0.1 8"/>
<path opacity="0.6" d="M960 232L1209 481L960 730L711 481L960 232Z" stroke="#A0A4AB" stroke-width="2" stroke-linecap="round" stroke-linejoin="round" stroke-dasharray="0.1 8"/>
<path d="M1012.43 285.312L1155.69 533.434L907.565 676.687L764.312 428.565L1012.43 285.312Z" stroke="#A0A4AB" stroke-width="2" stroke-linecap="round" stroke-linejoin="round" stroke-dasharray="0.1 8"/>
<rect x="688.707" y="778" width="7" height="7" transform="rotate(-45 688.707 778)" stroke="#1A1B1C"/>
<path d="M706.54 784V776.048L711.58 784H712.952V774.2H711.762V782.18L706.708 774.2H705.35V784H706.54ZM721.316 784V782.922H716.22V779.478H720.238V778.4H716.22V775.278H721.162V774.2H715.03V784H721.316ZM726.406 784.112C728.632 784.112 730.102 782.782 730.102 780.64V774.2H728.94V780.696C728.94 782.138 727.932 783.034 726.406 783.034C724.894 783.034 723.886 782.138 723.886 780.696V774.2H722.71V780.64C722.71 782.782 724.18 784.112 726.406 784.112ZM735.483 784V775.278H738.605V774.2H731.143V775.278H734.279V784H735.483ZM745.055 779.352C745.979 778.918 746.595 778.148 746.595 777.07C746.595 775.362 745.405 774.2 743.473 774.2H739.763V784H740.953V780.01H743.613C744.537 780.01 745.153 780.682 745.209 781.634L745.377 784H746.525L746.357 781.564C746.287 780.57 745.825 779.772 745.055 779.352ZM743.473 775.264C744.845 775.264 745.363 776.104 745.363 777.07C745.363 778.036 744.845 778.932 743.473 778.932H740.953V775.264H743.473ZM756.765 784L752.859 774.2H751.781L747.875 784H749.121L750.143 781.354H754.511L755.519 784H756.765ZM752.327 775.67L754.091 780.29H750.549L752.327 775.67ZM763.968 784V782.922H759.068V774.2H757.878V784H763.968ZM774.828 784V782.922H769.732V779.478H773.75V778.4H769.732V775.278H774.674V774.2H768.542V784H774.828ZM780.294 779.044L783.374 774.2H782.114L779.678 778.05L777.228 774.2H775.982L779.048 779.03L775.898 784H777.144L779.678 780.024L782.198 784H783.444L780.294 779.044ZM786.138 784V779.996H788.63C790.576 779.996 791.752 778.82 791.752 777.098C791.752 775.376 790.576 774.2 788.63 774.2H784.948V784H786.138ZM786.138 775.264H788.63C790.016 775.264 790.534 776.132 790.534 777.098C790.534 778.064 790.016 778.932 788.63 778.932H786.138V775.264ZM798.443 779.352C799.367 778.918 799.983 778.148 799.983 777.07C799.983 775.362 798.793 774.2 796.861 774.2H793.151V784H794.341V780.01H797.001C797.925 780.01 798.541 780.682 798.597 781.634L798.765 784H799.913L799.745 781.564C799.675 780.57 799.213 779.772 798.443 779.352ZM796.861 775.264C798.233 775.264 798.751 776.104 798.751 777.07C798.751 778.036 798.233 778.932 796.861 778.932H794.341V775.264H796.861ZM808.488 784V782.922H803.392V779.478H807.41V778.4H803.392V775.278H808.334V774.2H802.202V784H808.488ZM813.31 784.112C815.354 784.112 816.894 783.104 816.894 781.326C816.894 777.644 811.126 779.198 811.126 776.692C811.126 775.754 811.91 775.166 813.24 775.166C814.556 775.166 815.41 775.88 815.522 776.986H816.698C816.558 775.222 815.2 774.088 813.24 774.088C811.28 774.088 809.922 775.138 809.922 776.692C809.922 780.192 815.648 778.806 815.648 781.326C815.648 782.516 814.668 783.034 813.31 783.034C811.784 783.034 810.888 782.152 810.762 780.794H809.586C809.712 782.796 811.112 784.112 813.31 784.112ZM821.622 784.112C823.666 784.112 825.206 783.104 825.206 781.326C825.206 777.644 819.438 779.198 819.438 776.692C819.438 775.754 820.222 775.166 821.552 775.166C822.868 775.166 823.722 775.88 823.834 776.986H825.01C824.87 775.222 823.512 774.088 821.552 774.088C819.592 774.088 818.234 775.138 818.234 776.692C818.234 780.192 823.96 778.806 823.96 781.326C823.96 782.516 822.98 783.034 821.622 783.034C820.096 783.034 819.2 782.152 819.074 780.794H817.898C818.024 782.796 819.424 784.112 821.622 784.112ZM827.947 784V774.2H826.757V784H827.947ZM834.378 784.112C837.136 784.112 839.194 781.984 839.194 779.1C839.194 776.216 837.136 774.088 834.378 774.088C831.62 774.088 829.576 776.216 829.576 779.1C829.576 781.984 831.62 784.112 834.378 784.112ZM834.378 783.034C832.32 783.034 830.808 781.354 830.808 779.1C830.808 776.846 832.32 775.166 834.378 775.166C836.436 775.166 837.962 776.846 837.962 779.1C837.962 781.354 836.436 783.034 834.378 783.034ZM841.988 784V776.048L847.028 784H848.4V774.2H847.21V782.18L842.156 774.2H840.798V784H841.988Z" fill="#1A1B1C"/>
<rect x="883.022" y="778" width="7" height="7" transform="rotate(-45 883.022 778)" stroke="#1A1B1C"/>
<path d="M900.855 784V779.59H904.873V778.512H900.855V775.278H905.797V774.2H899.665V784H900.855ZM912.723 779.352C913.647 778.918 914.263 778.148 914.263 777.07C914.263 775.362 913.073 774.2 911.141 774.2H907.431V784H908.621V780.01H911.281C912.205 780.01 912.821 780.682 912.877 781.634L913.045 784H914.193L914.025 781.564C913.955 780.57 913.493 779.772 912.723 779.352ZM911.141 775.264C912.513 775.264 913.031 776.104 913.031 777.07C913.031 778.036 912.513 778.932 911.141 778.932H908.621V775.264H911.141ZM920.439 784.112C923.197 784.112 925.255 781.984 925.255 779.1C925.255 776.216 923.197 774.088 920.439 774.088C917.681 774.088 915.637 776.216 915.637 779.1C915.637 781.984 917.681 784.112 920.439 784.112ZM920.439 783.034C918.381 783.034 916.869 781.354 916.869 779.1C916.869 776.846 918.381 775.166 920.439 775.166C922.497 775.166 924.023 776.846 924.023 779.1C924.023 781.354 922.497 783.034 920.439 783.034ZM928.048 784V776.048L933.088 784H934.46V774.2H933.27V782.18L928.216 774.2H926.858V784H928.048ZM940.01 784V775.278H943.132V774.2H935.67V775.278H938.806V784H940.01ZM950.943 784L947.037 774.2H945.959L942.053 784H943.299L944.321 781.354H948.689L949.697 784H950.943ZM946.505 775.67L948.269 780.29H944.727L946.505 775.67ZM958.146 784V782.922H953.246V774.2H952.056V784H958.146ZM963.91 784V779.996H966.402C968.348 779.996 969.524 778.82 969.524 777.098C969.524 775.376 968.348 774.2 966.402 774.2H962.72V784H963.91ZM963.91 775.264H966.402C967.788 775.264 968.306 776.132 968.306 777.098C968.306 778.064 967.788 778.932 966.402 778.932H963.91V775.264ZM975.277 784.112C978.035 784.112 980.093 781.984 980.093 779.1C980.093 776.216 978.035 774.088 975.277 774.088C972.519 774.088 970.475 776.216 970.475 779.1C970.475 781.984 972.519 784.112 975.277 784.112ZM975.277 783.034C973.219 783.034 971.707 781.354 971.707 779.1C971.707 776.846 973.219 775.166 975.277 775.166C977.335 775.166 978.861 776.846 978.861 779.1C978.861 781.354 977.335 783.034 975.277 783.034ZM984.874 784.112C986.918 784.112 988.458 783.104 988.458 781.326C988.458 777.644 982.69 779.198 982.69 776.692C982.69 775.754 983.474 775.166 984.804 775.166C986.12 775.166 986.974 775.88 987.086 776.986H988.262C988.122 775.222 986.764 774.088 984.804 774.088C982.844 774.088 981.486 775.138 981.486 776.692C981.486 780.192 987.212 778.806 987.212 781.326C987.212 782.516 986.232 783.034 984.874 783.034C983.348 783.034 982.452 782.152 982.326 780.794H981.15C981.276 782.796 982.676 784.112 984.874 784.112ZM996.295 784V782.922H991.199V779.478H995.217V778.4H991.199V775.278H996.141V774.2H990.009V784H996.295Z" fill="#1A1B1C"/>
<rect x="1030.33" y="778" width="7" height="7" transform="rotate(-45 1030.33 778)" stroke="#1A1B1C"/>
<path d="M1054.93 784L1051.02 774.2H1049.95L1046.04 784H1047.29L1048.31 781.354H1052.68L1053.68 784H1054.93ZM1050.49 775.67L1052.26 780.29H1048.71L1050.49 775.67ZM1058.93 784C1061.67 784 1063.81 782.222 1063.81 779.1C1063.81 775.978 1061.67 774.2 1058.93 774.2H1056.04V784H1058.93ZM1057.23 775.278H1058.9C1060.8 775.278 1062.57 776.398 1062.57 779.1C1062.57 781.802 1060.8 782.922 1058.9 782.922H1057.23V775.278ZM1071.72 784V782.922H1066.62V779.478H1070.64V778.4H1066.62V775.278H1071.57V774.2H1065.43V784H1071.72ZM1082.14 779.1C1082.14 776.216 1080.08 774.088 1077.32 774.088C1074.56 774.088 1072.52 776.216 1072.52 779.1C1072.52 781.802 1074.31 783.832 1076.79 784.084V784.672C1076.79 786.198 1077.59 786.856 1079.18 786.856H1080.43V785.89H1079.2C1078.27 785.89 1077.88 785.582 1077.88 784.644V784.084C1080.36 783.818 1082.14 781.788 1082.14 779.1ZM1073.75 779.1C1073.75 776.846 1075.26 775.166 1077.32 775.166C1079.38 775.166 1080.91 776.846 1080.91 779.1C1080.91 781.354 1079.38 783.034 1077.32 783.034C1075.26 783.034 1073.75 781.354 1073.75 779.1ZM1087.27 784.112C1089.5 784.112 1090.97 782.782 1090.97 780.64V774.2H1089.8V780.696C1089.8 782.138 1088.8 783.034 1087.27 783.034C1085.76 783.034 1084.75 782.138 1084.75 780.696V774.2H1083.57V780.64C1083.57 782.782 1085.04 784.112 1087.27 784.112ZM1100.32 784L1096.41 774.2H1095.34L1091.43 784H1092.68L1093.7 781.354H1098.07L1099.07 784H1100.32ZM1095.88 775.67L1097.65 780.29H1094.1L1095.88 775.67ZM1103.59 784V775.278H1106.71V774.2H1099.25V775.278H1102.39V784H1103.59ZM1114.16 784V782.922H1109.06V779.478H1113.08V778.4H1109.06V775.278H1114V774.2H1107.87V784H1114.16ZM1125.23 784V782.922H1120.33V774.2H1119.14V784H1125.23ZM1127.66 784V774.2H1126.47V784H1127.66ZM1133.99 784.112C1135.43 784.112 1136.65 783.37 1137.11 782.292V784H1138.22V780.64C1138.22 779.52 1137.2 778.96 1136.48 778.96H1134.06V779.996H1136.27C1136.75 779.996 1137.04 780.29 1137.04 780.738C1137.04 782.152 1135.61 783.062 1134 783.062C1131.99 783.062 1130.5 781.634 1130.5 779.1C1130.5 776.552 1131.99 775.166 1134 775.166C1135.52 775.166 1136.75 776.048 1136.97 777.294H1138.23C1138.01 775.418 1136.26 774.088 1134.02 774.088C1131.58 774.088 1129.29 775.754 1129.29 779.1C1129.29 782.446 1131.57 784.112 1133.99 784.112ZM1146.34 778.4H1141.15V774.2H1139.96V784H1141.15V779.478H1146.34V784H1147.53V774.2H1146.34V778.4ZM1153.08 784V775.278H1156.21V774.2H1148.74V775.278H1151.88V784H1153.08ZM1158.55 784V774.2H1157.36V784H1158.55ZM1161.82 784V776.048L1166.86 784H1168.23V774.2H1167.04V782.18L1161.99 774.2H1160.63V784H1161.82ZM1174.57 784.112C1176.01 784.112 1177.23 783.37 1177.69 782.292V784H1178.8V780.64C1178.8 779.52 1177.77 778.96 1177.06 778.96H1174.64V779.996H1176.85C1177.33 779.996 1177.62 780.29 1177.62 780.738C1177.62 782.152 1176.19 783.062 1174.58 783.062C1172.57 783.062 1171.08 781.634 1171.08 779.1C1171.08 776.552 1172.57 775.166 1174.58 775.166C1176.09 775.166 1177.33 776.048 1177.55 777.294H1178.81C1178.59 775.418 1176.84 774.088 1174.6 774.088C1172.16 774.088 1169.86 775.754 1169.86 779.1C1169.86 782.446 1172.15 784.112 1174.57 784.112Z" fill="#1A1B1C"/>
<path d="M816.627 744V735.278H819.749V734.2H812.287V735.278H815.423V744H816.627ZM824.619 744.112C827.377 744.112 829.435 741.984 829.435 739.1C829.435 736.216 827.377 734.088 824.619 734.088C821.861 734.088 819.817 736.216 819.817 739.1C819.817 741.984 821.861 744.112 824.619 744.112ZM824.619 743.034C822.561 743.034 821.049 741.354 821.049 739.1C821.049 736.846 822.561 735.166 824.619 735.166C826.677 735.166 828.203 736.846 828.203 739.1C828.203 741.354 826.677 743.034 824.619 743.034ZM838.63 744.112C840.072 744.112 841.29 743.37 841.752 742.292V744H842.858V740.64C842.858 739.52 841.836 738.96 841.122 738.96H838.7V739.996H840.912C841.388 739.996 841.682 740.29 841.682 740.738C841.682 742.152 840.254 743.062 838.644 743.062C836.628 743.062 835.144 741.634 835.144 739.1C835.144 736.552 836.628 735.166 838.644 735.166C840.156 735.166 841.388 736.048 841.612 737.294H842.872C842.648 735.418 840.898 734.088 838.658 734.088C836.222 734.088 833.926 735.754 833.926 739.1C833.926 742.446 836.208 744.112 838.63 744.112ZM850.886 744V742.922H845.79V739.478H849.808V738.4H845.79V735.278H850.732V734.2H844.6V744H850.886ZM856.002 744V735.278H859.124V734.2H851.662V735.278H854.798V744H856.002ZM867.383 744C869.399 744 870.589 742.908 870.589 741.144C870.589 739.772 869.861 738.974 868.853 738.638C869.511 738.358 870.155 737.63 870.155 736.72C870.155 735.124 869.021 734.2 867.159 734.2H863.659V744H867.383ZM864.849 735.25H867.131C868.307 735.25 868.965 735.74 868.965 736.748C868.965 737.756 868.307 738.26 867.131 738.26H864.849V735.25ZM864.849 739.324H867.187C868.629 739.324 869.371 739.954 869.371 741.13C869.371 742.292 868.629 742.922 867.187 742.922H864.849V739.324ZM878.504 744V742.922H873.408V739.478H877.426V738.4H873.408V735.278H878.35V734.2H872.218V744H878.504ZM883.619 744V735.278H886.741V734.2H879.279V735.278H882.415V744H883.619ZM891.412 744V735.278H894.534V734.2H887.072V735.278H890.208V744H891.412ZM901.978 744V742.922H896.882V739.478H900.9V738.4H896.882V735.278H901.824V734.2H895.692V744H901.978ZM908.914 739.352C909.838 738.918 910.454 738.148 910.454 737.07C910.454 735.362 909.264 734.2 907.332 734.2H903.622V744H904.812V740.01H907.472C908.396 740.01 909.012 740.682 909.068 741.634L909.236 744H910.384L910.216 741.564C910.146 740.57 909.684 739.772 908.914 739.352ZM907.332 735.264C908.704 735.264 909.222 736.104 909.222 737.07C909.222 738.036 908.704 738.932 907.332 738.932H904.812V735.264H907.332ZM921.301 739.352C922.225 738.918 922.841 738.148 922.841 737.07C922.841 735.362 921.651 734.2 919.719 734.2H916.009V744H917.199V740.01H919.859C920.783 740.01 921.399 740.682 921.455 741.634L921.623 744H922.771L922.603 741.564C922.533 740.57 922.071 739.772 921.301 739.352ZM919.719 735.264C921.091 735.264 921.609 736.104 921.609 737.07C921.609 738.036 921.091 738.932 919.719 738.932H917.199V735.264H919.719ZM931.345 744V742.922H926.249V739.478H930.267V738.4H926.249V735.278H931.191V734.2H925.059V744H931.345ZM936.167 744.112C938.211 744.112 939.751 743.104 939.751 741.326C939.751 737.644 933.983 739.198 933.983 736.692C933.983 735.754 934.767 735.166 936.097 735.166C937.413 735.166 938.267 735.88 938.379 736.986H939.555C939.415 735.222 938.057 734.088 936.097 734.088C934.137 734.088 932.779 735.138 932.779 736.692C932.779 740.192 938.505 738.806 938.505 741.326C938.505 742.516 937.525 743.034 936.167 743.034C934.641 743.034 933.745 742.152 933.619 740.794H932.443C932.569 742.796 933.969 744.112 936.167 744.112ZM944.83 744.112C947.056 744.112 948.526 742.782 948.526 740.64V734.2H947.364V740.696C947.364 742.138 946.356 743.034 944.83 743.034C943.318 743.034 942.31 742.138 942.31 740.696V734.2H941.134V740.64C941.134 742.782 942.604 744.112 944.83 744.112ZM956.524 744V742.922H951.624V734.2H950.434V744H956.524ZM959.731 744V735.278H962.853V734.2H955.391V735.278H958.527V744H959.731ZM967.12 744.112C969.164 744.112 970.704 743.104 970.704 741.326C970.704 737.644 964.936 739.198 964.936 736.692C964.936 735.754 965.72 735.166 967.05 735.166C968.366 735.166 969.22 735.88 969.332 736.986H970.508C970.368 735.222 969.01 734.088 967.05 734.088C965.09 734.088 963.732 735.138 963.732 736.692C963.732 740.192 969.458 738.806 969.458 741.326C969.458 742.516 968.478 743.034 967.12 743.034C965.594 743.034 964.698 742.152 964.572 740.794H963.396C963.522 742.796 964.922 744.112 967.12 744.112ZM976.753 744V736.188L979.847 744H980.897L983.991 736.188V744H985.153V734.2H983.599L980.379 742.39L977.145 734.2H975.591V744H976.753ZM995.177 744L991.271 734.2H990.193L986.287 744H987.533L988.555 741.354H992.923L993.931 744H995.177ZM990.739 735.67L992.503 740.29H988.961L990.739 735.67ZM1003.99 744L999.748 738.148L1003.56 734.2H1002.04L997.494 738.862V734.2H996.29V744H997.494V740.472L998.936 738.988L1002.55 744H1003.99ZM1011.46 744V742.922H1006.37V739.478H1010.38V738.4H1006.37V735.278H1011.31V734.2H1005.18V744H1011.46ZM1019.62 744.112C1021.66 744.112 1023.2 743.104 1023.2 741.326C1023.2 737.644 1017.44 739.198 1017.44 736.692C1017.44 735.754 1018.22 735.166 1019.55 735.166C1020.87 735.166 1021.72 735.88 1021.83 736.986H1023.01C1022.87 735.222 1021.51 734.088 1019.55 734.088C1017.59 734.088 1016.23 735.138 1016.23 736.692C1016.23 740.192 1021.96 738.806 1021.96 741.326C1021.96 742.516 1020.98 743.034 1019.62 743.034C1018.09 743.034 1017.2 742.152 1017.07 740.794H1015.9C1016.02 742.796 1017.42 744.112 1019.62 744.112ZM1028.28 744.112C1030.51 744.112 1031.98 742.782 1031.98 740.64V734.2H1030.82V740.696C1030.82 742.138 1029.81 743.034 1028.28 743.034C1026.77 743.034 1025.76 742.138 1025.76 740.696V734.2H1024.59V740.64C1024.59 742.782 1026.06 744.112 1028.28 744.112ZM1039.18 739.352C1040.1 738.918 1040.72 738.148 1040.72 737.07C1040.72 735.362 1039.53 734.2 1037.6 734.2H1033.89V744H1035.08V740.01H1037.74C1038.66 740.01 1039.28 740.682 1039.33 741.634L1039.5 744H1040.65L1040.48 741.564C1040.41 740.57 1039.95 739.772 1039.18 739.352ZM1037.6 735.264C1038.97 735.264 1039.49 736.104 1039.49 737.07C1039.49 738.036 1038.97 738.932 1037.6 738.932H1035.08V735.264H1037.6ZM1049.22 744V742.922H1044.13V739.478H1048.15V738.4H1044.13V735.278H1049.07V734.2H1042.94V744H1049.22ZM1057.68 744V735.278H1060.8V734.2H1053.34V735.278H1056.47V744H1057.68ZM1065.67 744.112C1068.43 744.112 1070.48 741.984 1070.48 739.1C1070.48 736.216 1068.43 734.088 1065.67 734.088C1062.91 734.088 1060.87 736.216 1060.87 739.1C1060.87 741.984 1062.91 744.112 1065.67 744.112ZM1065.67 743.034C1063.61 743.034 1062.1 741.354 1062.1 739.1C1062.1 736.846 1063.61 735.166 1065.67 735.166C1067.73 735.166 1069.25 736.846 1069.25 739.1C1069.25 741.354 1067.73 743.034 1065.67 743.034ZM1081.81 738.4H1076.61V734.2H1075.42V744H1076.61V739.478H1081.81V744H1083V734.2H1081.81V738.4ZM1093.03 744L1089.12 734.2H1088.04L1084.14 744H1085.38L1086.41 741.354H1090.77L1091.78 744H1093.03ZM1088.59 735.67L1090.35 740.29H1086.81L1088.59 735.67ZM1097.15 744L1100.86 734.2H1099.64L1096.53 742.614L1093.45 734.2H1092.22L1095.93 744H1097.15ZM1108.27 744V742.922H1103.18V739.478H1107.2V738.4H1103.18V735.278H1108.12V734.2H1101.99V744H1108.27Z" fill="#1A1B1C"/>
<path d="M879.835 584.128C882.299 584.128 884.011 582.864 884.011 580.784C884.011 576.416 877.915 578.272 877.915 575.792C877.915 575.008 878.603 574.496 879.707 574.496C880.891 574.496 881.659 575.152 881.755 576.128H883.771C883.675 574.032 882.075 572.672 879.707 572.672C877.435 572.672 875.851 573.952 875.851 575.792C875.851 580.08 881.867 578.416 881.867 580.816C881.867 581.808 881.035 582.288 879.835 582.288C878.491 582.288 877.659 581.488 877.547 580.24H875.515C875.627 582.592 877.291 584.128 879.835 584.128ZM892.842 584V582.16H887.322V579.168H891.61V577.344H887.322V574.624H892.666V572.8H885.21V584H892.842ZM898.747 584V574.624H902.123V572.8H893.243V574.624H896.635V584H898.747ZM907.599 584V574.624H910.975V572.8H902.095V574.624H905.487V584H907.599ZM913.815 584V572.8H911.687V584H913.815ZM917.745 584V576.112L922.609 584H924.881V572.8H922.769V580.704L917.921 572.8H915.633V584H917.745ZM931.68 584.128C933.184 584.128 934.416 583.36 934.832 582.224V584H936.72V579.824C936.72 578.752 935.84 577.984 934.864 577.984H931.888V579.6H934.16C934.512 579.6 934.736 579.824 934.736 580.176C934.736 581.376 933.28 582.384 931.76 582.384C929.776 582.384 928.24 580.88 928.24 578.4C928.24 575.92 929.776 574.496 931.792 574.496C933.328 574.496 934.432 575.344 934.624 576.608H936.752C936.576 574.288 934.56 572.672 931.808 572.672C928.896 572.672 926.208 574.576 926.208 578.4C926.208 582.224 928.848 584.128 931.68 584.128ZM945.615 584.128C948.239 584.128 950.015 582.672 950.015 579.952V572.8H948.031V579.968C948.031 581.504 947.039 582.272 945.615 582.272C944.191 582.272 943.215 581.504 943.215 579.968V572.8H941.215V579.952C941.215 582.672 943.007 584.128 945.615 584.128ZM953.762 584V579.744H956.13C958.466 579.744 959.858 578.304 959.858 576.272C959.858 574.24 958.466 572.8 956.13 572.8H951.634V584H953.762ZM953.762 574.576H956.034C957.282 574.576 957.794 575.376 957.794 576.272C957.794 577.168 957.282 577.968 956.034 577.968H953.762V574.576ZM969.144 584.128C971.896 584.128 973.944 582.544 974.168 580.224H972.056C971.864 581.44 970.68 582.288 969.144 582.288C967.192 582.288 965.72 580.944 965.72 578.4C965.72 575.856 967.192 574.496 969.144 574.496C970.648 574.496 971.832 575.344 971.992 576.576H974.2C973.896 574.256 971.848 572.672 969.144 572.672C966.216 572.672 963.592 574.592 963.592 578.4C963.592 582.208 966.168 584.128 969.144 584.128ZM984.712 584L980.392 572.8H978.408L974.104 584H976.28L977.24 581.392H981.56L982.52 584H984.712ZM979.416 575.504L980.92 579.6H977.912L979.416 575.504ZM987.541 584V576.576L990.597 584H992.197L995.237 576.576V584H997.221V572.8H994.789L991.397 581.072L988.005 572.8H985.557V584H987.541ZM1006.68 584V582.16H1001.16V579.168H1005.45V577.344H1001.16V574.624H1006.51V572.8H999.05V584H1006.68ZM1016.16 581.008C1016.08 579.984 1015.58 579.152 1014.81 578.672C1015.74 578.192 1016.32 577.408 1016.32 576.256C1016.32 574.224 1014.94 572.8 1012.6 572.8H1008.01V584H1010.14V579.792H1012.56C1013.39 579.792 1013.98 580.4 1014.06 581.248L1014.33 584H1016.43L1016.16 581.008ZM1012.51 574.576C1013.76 574.576 1014.27 575.36 1014.27 576.256C1014.27 577.152 1013.76 577.968 1012.51 577.968H1010.14V574.576H1012.51ZM1027.92 584L1023.6 572.8H1021.61L1017.31 584H1019.48L1020.44 581.392H1024.76L1025.72 584H1027.92ZM1022.62 575.504L1024.12 579.6H1021.12L1022.62 575.504ZM1031.78 582.88C1031.78 582.389 1031.92 582.048 1032.18 581.856C1032.45 581.653 1032.77 581.552 1033.16 581.552C1033.53 581.552 1033.85 581.653 1034.12 581.856C1034.38 582.048 1034.52 582.389 1034.52 582.88C1034.52 583.349 1034.38 583.691 1034.12 583.904C1033.85 584.107 1033.53 584.208 1033.16 584.208C1032.77 584.208 1032.45 584.107 1032.18 583.904C1031.92 583.691 1031.78 583.349 1031.78 582.88ZM1036.02 582.88C1036.02 582.389 1036.16 582.048 1036.42 581.856C1036.69 581.653 1037.02 581.552 1037.4 581.552C1037.77 581.552 1038.09 581.653 1038.36 581.856C1038.63 582.048 1038.76 582.389 1038.76 582.88C1038.76 583.349 1038.63 583.691 1038.36 583.904C1038.09 584.107 1037.77 584.208 1037.4 584.208C1037.02 584.208 1036.69 584.107 1036.42 583.904C1036.16 583.691 1036.02 583.349 1036.02 582.88ZM1040.27 582.88C1040.27 582.389 1040.4 582.048 1040.67 581.856C1040.93 581.653 1041.26 581.552 1041.64 581.552C1042.02 581.552 1042.34 581.653 1042.6 581.856C1042.87 582.048 1043 582.389 1043 582.88C1043 583.349 1042.87 583.691 1042.6 583.904C1042.34 584.107 1042.02 584.208 1041.64 584.208C1041.26 584.208 1040.93 584.107 1040.67 583.904C1040.4 583.691 1040.27 583.349 1040.27 582.88Z" fill="#1A1B1C"/>
</svg>
