<svg width="218" height="218" viewBox="0 0 218 218" fill="none" xmlns="http://www.w3.org/2000/svg">
<rect x="108.801" y="-0.00976562" width="153.876" height="153.875" transform="rotate(45 108.801 -0.00976562)" fill="#F3F3F4"/>
<path d="M75.6893 103.128C78.4413 103.128 80.4893 101.544 80.7133 99.224L78.6013 99.224C78.4093 100.44 77.2253 101.288 75.6893 101.288C73.7373 101.288 72.2653 99.944 72.2653 97.4C72.2653 94.856 73.7373 93.496 75.6893 93.496C77.1933 93.496 78.3773 94.344 78.5373 95.576L80.7453 95.576C80.4413 93.256 78.3933 91.672 75.6893 91.672C72.7613 91.672 70.1373 93.592 70.1373 97.4C70.1373 101.208 72.7133 103.128 75.6893 103.128ZM87.1063 103.128C90.3543 103.128 92.7543 100.696 92.7543 97.4C92.7543 94.104 90.3543 91.672 87.1063 91.672C83.8423 91.672 81.4423 94.104 81.4423 97.4C81.4423 100.696 83.8423 103.128 87.1063 103.128ZM87.0903 101.288C85.0583 101.288 83.5703 99.64 83.5703 97.4C83.5703 95.16 85.0583 93.496 87.0903 93.496C89.1383 93.496 90.6263 95.16 90.6263 97.4C90.6263 99.64 89.1383 101.288 87.0903 101.288ZM97.767 103.128C100.231 103.128 101.943 101.864 101.943 99.784C101.943 95.416 95.847 97.272 95.847 94.792C95.847 94.008 96.535 93.496 97.639 93.496C98.823 93.496 99.591 94.152 99.687 95.128L101.703 95.128C101.607 93.032 100.007 91.672 97.639 91.672C95.367 91.672 93.783 92.952 93.783 94.792C93.783 99.08 99.799 97.416 99.799 99.816C99.799 100.808 98.967 101.288 97.767 101.288C96.423 101.288 95.591 100.488 95.479 99.24L93.447 99.24C93.559 101.592 95.223 103.128 97.767 103.128ZM105.126 103L105.126 95.576L108.182 103L109.782 103L112.822 95.576L112.822 103L114.806 103L114.806 91.8L112.374 91.8L108.982 100.072L105.59 91.8L103.142 91.8L103.142 103L105.126 103ZM124.267 103L124.267 101.16L118.747 101.16L118.747 98.168L123.035 98.168L123.035 96.344L118.747 96.344L118.747 93.624L124.091 93.624L124.091 91.8L116.635 91.8L116.635 103L124.267 103ZM130.172 103L130.172 93.624L133.548 93.624L133.548 91.8L124.668 91.8L124.668 93.624L128.06 93.624L128.06 103L130.172 103ZM136.388 103L136.388 91.7999L134.26 91.8L134.26 103L136.388 103ZM143.262 103.128C146.014 103.128 148.062 101.544 148.286 99.2239L146.174 99.2239C145.982 100.44 144.798 101.288 143.262 101.288C141.31 101.288 139.838 99.9439 139.838 97.3999C139.838 94.8559 141.31 93.4959 143.262 93.4959C144.766 93.4959 145.95 94.3439 146.11 95.5759L148.318 95.5759C148.014 93.2559 145.966 91.6719 143.262 91.6719C140.334 91.6719 137.71 93.5919 137.71 97.3999C137.71 101.208 140.286 103.128 143.262 103.128ZM72.3808 127.128C75.1328 127.128 77.1808 125.544 77.4048 123.224L75.2928 123.224C75.1008 124.44 73.9168 125.288 72.3808 125.288C70.4288 125.288 68.9568 123.944 68.9568 121.4C68.9568 118.856 70.4288 117.496 72.3808 117.496C73.8848 117.496 75.0688 118.344 75.2288 119.576L77.4368 119.576C77.1328 117.256 75.0848 115.672 72.3808 115.672C69.4528 115.672 66.8288 117.592 66.8288 121.4C66.8288 125.208 69.4048 127.128 72.3808 127.128ZM83.7978 127.128C87.0458 127.128 89.4458 124.696 89.4458 121.4C89.4458 118.104 87.0458 115.672 83.7978 115.672C80.5338 115.672 78.1338 118.104 78.1338 121.4C78.1338 124.696 80.5338 127.128 83.7978 127.128ZM83.7818 125.288C81.7498 125.288 80.2618 123.64 80.2618 121.4C80.2618 119.16 81.7498 117.496 83.7818 117.496C85.8298 117.496 87.3178 119.16 87.3178 121.4C87.3178 123.64 85.8298 125.288 83.7818 125.288ZM92.8906 127L92.8906 119.112L97.7546 127L100.027 127L100.027 115.8L97.9146 115.8L97.9146 123.704L93.0666 115.8L90.7786 115.8L90.7786 127L92.8906 127ZM106.905 127.128C109.657 127.128 111.705 125.544 111.929 123.224L109.817 123.224C109.625 124.44 108.441 125.288 106.905 125.288C104.953 125.288 103.481 123.944 103.481 121.4C103.481 118.856 104.953 117.496 106.905 117.496C108.409 117.496 109.593 118.344 109.753 119.576L111.961 119.576C111.657 117.256 109.609 115.672 106.905 115.672C103.977 115.672 101.353 117.592 101.353 121.4C101.353 125.208 103.929 127.128 106.905 127.128ZM120.771 127L120.771 125.16L115.251 125.16L115.251 122.168L119.539 122.168L119.539 120.344L115.251 120.344L115.251 117.624L120.595 117.624L120.595 115.8L113.139 115.8L113.139 127L120.771 127ZM130.244 124.008C130.164 122.984 129.668 122.152 128.9 121.672C129.828 121.192 130.404 120.408 130.404 119.256C130.404 117.224 129.028 115.8 126.692 115.8L122.1 115.8L122.1 127L124.228 127L124.228 122.792L126.644 122.792C127.476 122.792 128.068 123.4 128.148 124.248L128.42 127L130.516 127L130.244 124.008ZM126.596 117.576C127.844 117.576 128.356 118.36 128.356 119.256C128.356 120.152 127.844 120.968 126.596 120.968L124.228 120.968L124.228 117.576L126.596 117.576ZM134.486 127L134.486 119.112L139.35 127L141.622 127L141.622 115.8L139.51 115.8L139.51 123.704L134.662 115.8L132.374 115.8L132.374 127L134.486 127ZM147.124 127.128C149.588 127.128 151.3 125.864 151.3 123.784C151.3 119.416 145.204 121.272 145.204 118.792C145.204 118.008 145.892 117.496 146.996 117.496C148.18 117.496 148.948 118.152 149.044 119.128L151.06 119.128C150.964 117.032 149.364 115.672 146.996 115.672C144.724 115.672 143.14 116.952 143.14 118.792C143.14 123.08 149.156 121.416 149.156 123.816C149.156 124.808 148.324 125.288 147.124 125.288C145.78 125.288 144.948 124.488 144.836 123.24L142.804 123.24C142.916 125.592 144.58 127.128 147.124 127.128Z" fill="#1A1B1C"/>
</svg>
