<svg width="218" height="218" viewBox="0 0 218 218" fill="none" xmlns="http://www.w3.org/2000/svg">
<rect x="109.002" y="0.00268555" width="153.876" height="153.875" transform="rotate(45 109.002 0.00268555)" fill="#E1E1E2"/>
<path d="M52.4991 114.972C55.6031 114.972 58.2431 113.116 58.2431 109.372C58.2431 105.628 55.6031 103.772 52.4991 103.772L48.8671 103.772L48.8671 114.972L52.4991 114.972ZM50.9791 105.596L52.3231 105.596C54.2591 105.596 56.0991 106.604 56.0991 109.372C56.0991 112.14 54.2591 113.132 52.3231 113.132L50.9791 113.132L50.9791 105.596ZM67.2103 114.972L67.2103 113.132L61.6903 113.132L61.6903 110.14L65.9783 110.14L65.9783 108.316L61.6903 108.316L61.6903 105.596L67.0343 105.596L67.0343 103.772L59.5783 103.772L59.5783 114.972L67.2103 114.972ZM70.5236 114.972L70.5236 107.548L73.5796 114.972L75.1796 114.972L78.2196 107.548L78.2196 114.972L80.2036 114.972L80.2036 103.772L77.7716 103.772L74.3796 112.044L70.9876 103.772L68.5396 103.772L68.5396 114.972L70.5236 114.972ZM87.2001 115.1C90.4481 115.1 92.8481 112.668 92.8481 109.372C92.8481 106.076 90.4481 103.644 87.2001 103.644C83.9361 103.644 81.5361 106.076 81.5361 109.372C81.5361 112.668 83.9361 115.1 87.2001 115.1ZM87.1841 113.26C85.1521 113.26 83.6641 111.612 83.6641 109.372C83.6641 107.132 85.1521 105.468 87.1841 105.468C89.2321 105.468 90.7201 107.132 90.7201 109.372C90.7201 111.612 89.2321 113.26 87.1841 113.26ZM99.1568 115.1C100.661 115.1 101.893 114.332 102.309 113.196L102.309 114.972L104.197 114.972L104.197 110.796C104.197 109.724 103.317 108.956 102.341 108.956L99.3648 108.956L99.3648 110.572L101.637 110.572C101.989 110.572 102.213 110.796 102.213 111.148C102.213 112.348 100.757 113.356 99.2368 113.356C97.2528 113.356 95.7168 111.852 95.7168 109.372C95.7168 106.892 97.2528 105.468 99.2688 105.468C100.805 105.468 101.909 106.316 102.101 107.58L104.229 107.58C104.053 105.26 102.037 103.644 99.2848 103.644C96.3728 103.644 93.6848 105.548 93.6848 109.372C93.6848 113.196 96.3248 115.1 99.1568 115.1ZM113.864 111.98C113.784 110.956 113.288 110.124 112.52 109.644C113.448 109.164 114.024 108.38 114.024 107.228C114.024 105.196 112.648 103.772 110.312 103.772L105.72 103.772L105.72 114.972L107.848 114.972L107.848 110.764L110.264 110.764C111.096 110.764 111.688 111.372 111.768 112.22L112.04 114.972L114.136 114.972L113.864 111.98ZM110.216 105.548C111.464 105.548 111.976 106.332 111.976 107.228C111.976 108.124 111.464 108.94 110.216 108.94L107.848 108.94L107.848 105.548L110.216 105.548ZM125.626 114.972L121.306 103.772L119.322 103.772L115.018 114.972L117.194 114.972L118.154 112.364L122.474 112.364L123.434 114.972L125.626 114.972ZM120.33 106.476L121.834 110.572L118.826 110.572L120.33 106.476ZM128.505 114.972L128.505 110.716L130.873 110.716C133.209 110.716 134.601 109.276 134.601 107.244C134.601 105.212 133.209 103.772 130.873 103.772L126.377 103.772L126.377 114.972L128.505 114.972ZM128.505 105.548L130.777 105.548C132.025 105.548 132.537 106.348 132.537 107.244C132.537 108.14 132.025 108.94 130.777 108.94L128.505 108.94L128.505 105.548ZM142.755 108.316L137.763 108.316L137.763 103.772L135.651 103.772L135.651 114.972L137.763 114.972L137.763 110.156L142.755 110.156L142.755 114.972L144.867 114.972L144.867 103.772L142.755 103.772L142.755 108.316ZM148.818 114.972L148.818 103.772L146.69 103.772L146.69 114.972L148.818 114.972ZM155.692 115.1C158.444 115.1 160.492 113.516 160.716 111.196L158.604 111.196C158.412 112.412 157.228 113.26 155.692 113.26C153.74 113.26 152.268 111.916 152.268 109.372C152.268 106.828 153.74 105.468 155.692 105.468C157.196 105.468 158.38 106.316 158.54 107.548L160.748 107.548C160.444 105.228 158.396 103.644 155.692 103.644C152.764 103.644 150.14 105.564 150.14 109.372C150.14 113.18 152.716 115.1 155.692 115.1ZM165.621 115.1C168.085 115.1 169.797 113.836 169.797 111.756C169.797 107.388 163.701 109.244 163.701 106.764C163.701 105.98 164.389 105.468 165.493 105.468C166.677 105.468 167.445 106.124 167.541 107.1L169.557 107.1C169.461 105.004 167.861 103.644 165.493 103.644C163.221 103.644 161.637 104.924 161.637 106.764C161.637 111.052 167.653 109.388 167.653 111.788C167.653 112.78 166.821 113.26 165.621 113.26C164.277 113.26 163.445 112.46 163.333 111.212L161.301 111.212C161.413 113.564 163.077 115.1 165.621 115.1Z" fill="#1A1B1C"/>
</svg>
