<svg width="218" height="218" viewBox="0 0 218 218" fill="none" xmlns="http://www.w3.org/2000/svg">
<rect x="109.01" y="-0.00952148" width="153.876" height="153.875" transform="rotate(45 109.01 -0.00952148)" fill="#F3F3F4"/>
<path d="M76.6883 103.09C79.1523 103.09 80.8643 101.826 80.8643 99.7462C80.8643 95.3781 74.7683 97.2342 74.7683 94.7542C74.7683 93.9702 75.4563 93.4582 76.5603 93.4582C77.7443 93.4582 78.5123 94.1142 78.6083 95.0902L80.6243 95.0902C80.5283 92.9942 78.9283 91.6342 76.5603 91.6342C74.2883 91.6342 72.7043 92.9142 72.7043 94.7542C72.7043 99.0422 78.7203 97.3782 78.7203 99.7782C78.7203 100.77 77.8883 101.25 76.6883 101.25C75.3443 101.25 74.5123 100.45 74.4003 99.2022L72.3683 99.2022C72.4803 101.554 74.1443 103.09 76.6883 103.09ZM91.7433 102.962L87.2153 96.2101L91.3273 91.7621L88.6873 91.7621L84.1913 96.6421L84.1913 91.7621L82.0633 91.7621L82.0633 102.962L84.1913 102.962L84.1913 99.4741L85.7593 97.7781L89.1193 102.962L91.7433 102.962ZM94.7306 102.962L94.7306 91.7621L92.6026 91.7621L92.6026 102.962L94.7306 102.962ZM98.6603 102.962L98.6603 95.0741L103.524 102.962L105.796 102.962L105.796 91.7621L103.684 91.7621L103.684 99.6661L98.8363 91.7621L96.5483 91.7621L96.5483 102.962L98.6603 102.962ZM115.375 102.962L115.375 93.5861L118.751 93.5861L118.751 91.7621L109.871 91.7621L109.871 93.5861L113.263 93.5861L113.263 102.962L115.375 102.962ZM124.579 102.962L124.579 98.3061L128.435 91.7621L126.163 91.7621L123.523 96.3381L120.899 91.7621L118.611 91.7621L122.467 98.3061L122.467 102.962L124.579 102.962ZM131.068 102.962L131.068 98.7061L133.436 98.7061C135.772 98.7061 137.164 97.2661 137.164 95.2341C137.164 93.2021 135.772 91.7621 133.436 91.7621L128.94 91.7621L128.94 102.962L131.068 102.962ZM131.068 93.5381L133.34 93.5381C134.588 93.5381 135.1 94.3381 135.1 95.2341C135.1 96.1301 134.588 96.9301 133.34 96.9301L131.068 96.9301L131.068 93.5381ZM145.846 102.962L145.846 101.122L140.326 101.122L140.326 98.1301L144.614 98.1301L144.614 96.3061L140.326 96.3061L140.326 93.5861L145.67 93.5861L145.67 91.7621L138.214 91.7621L138.214 102.962L145.846 102.962ZM84.2774 126.962C87.3814 126.962 90.0214 125.106 90.0214 121.362C90.0214 117.618 87.3814 115.762 84.2774 115.762L80.6454 115.762L80.6454 126.962L84.2774 126.962ZM82.7574 117.586L84.1014 117.586C86.0374 117.586 87.8774 118.594 87.8774 121.362C87.8774 124.13 86.0374 125.122 84.1014 125.122L82.7574 125.122L82.7574 117.586ZM98.9887 126.962L98.9887 125.122L93.4687 125.122L93.4687 122.13L97.7567 122.13L97.7567 120.306L93.4687 120.306L93.4687 117.586L98.8127 117.586L98.8127 115.762L91.3567 115.762L91.3567 126.962L98.9887 126.962ZM104.894 126.962L104.894 117.586L108.27 117.586L108.27 115.762L99.3899 115.762L99.3899 117.586L102.782 117.586L102.782 126.962L104.894 126.962ZM117.317 126.962L112.997 115.762L111.013 115.762L106.709 126.962L108.885 126.962L109.845 124.354L114.165 124.354L115.125 126.962L117.317 126.962ZM112.021 118.466L113.525 122.562L110.517 122.562L112.021 118.466ZM120.197 126.962L120.197 115.762L118.069 115.762L118.069 126.962L120.197 126.962ZM129.374 126.962L129.374 125.122L124.142 125.122L124.142 115.762L122.014 115.762L122.014 126.962L129.374 126.962ZM133.843 127.09C136.307 127.09 138.019 125.826 138.019 123.746C138.019 119.378 131.923 121.234 131.923 118.754C131.923 117.97 132.611 117.458 133.715 117.458C134.899 117.458 135.667 118.114 135.763 119.09L137.779 119.09C137.683 116.994 136.083 115.634 133.715 115.634C131.443 115.634 129.859 116.914 129.859 118.754C129.859 123.042 135.875 121.378 135.875 123.778C135.875 124.77 135.043 125.25 133.843 125.25C132.499 125.25 131.667 124.45 131.555 123.202L129.523 123.202C129.635 125.554 131.299 127.09 133.843 127.09Z" fill="#1A1B1C"/>
</svg>
