<svg width="218" height="219" viewBox="0 0 218 219" fill="none" xmlns="http://www.w3.org/2000/svg">
<rect x="108.996" y="0.981201" width="153.876" height="153.875" transform="rotate(45 108.996 0.981201)" fill="#F3F3F4"/>
<path d="M77.9984 116L80.3824 108.08L82.7664 116L84.8464 116L88.1904 104.8L86.0624 104.8L83.7264 112.88L81.2784 104.8L79.4704 104.8L77.0384 112.88L74.7184 104.8L72.5744 104.8L75.9344 116L77.9984 116ZM96.8579 116L96.8579 114.16L91.3379 114.16L91.3379 111.168L95.6259 111.168L95.6259 109.344L91.3379 109.344L91.3379 106.624L96.6819 106.624L96.6819 104.8L89.2259 104.8L89.2259 116L96.8579 116ZM107.819 116L103.499 104.8L101.515 104.8L97.2111 116L99.3871 116L100.347 113.392L104.667 113.392L105.627 116L107.819 116ZM102.523 107.504L104.027 111.6L101.019 111.6L102.523 107.504ZM111.756 116L111.756 106.624L115.132 106.624L115.132 104.8L106.252 104.8L106.252 106.624L109.644 106.624L109.644 116L111.756 116ZM122.948 109.344L117.956 109.344L117.956 104.8L115.844 104.8L115.844 116L117.956 116L117.956 111.184L122.948 111.184L122.948 116L125.06 116L125.06 104.8L122.948 104.8L122.948 109.344ZM134.515 116L134.515 114.16L128.995 114.16L128.995 111.168L133.283 111.168L133.283 109.344L128.995 109.344L128.995 106.624L134.339 106.624L134.339 104.8L126.883 104.8L126.883 116L134.515 116ZM143.989 113.008C143.909 111.984 143.413 111.152 142.645 110.672C143.573 110.192 144.149 109.408 144.149 108.256C144.149 106.224 142.773 104.8 140.437 104.8L135.845 104.8L135.845 116L137.973 116L137.973 111.792L140.389 111.792C141.221 111.792 141.813 112.4 141.893 113.248L142.165 116L144.261 116L143.989 113.008ZM140.341 106.576C141.589 106.576 142.101 107.36 142.101 108.256C142.101 109.152 141.589 109.968 140.341 109.968L137.973 109.968L137.973 106.576L140.341 106.576Z" fill="#1A1B1C"/>
</svg>
